<svg xmlns="http://www.w3.org/2000/svg" viewBox="0 0 167.19 160.85" width="35" height="35">
  <defs>
    <style>.cls-1{fill:#fff;}</style>
  </defs>
  <g id="Layer_2" data-name="Layer 2">
    <path class="cls-1" d="M445.44,739.22c1,.31,2.16.67,3.53,1.07a50.44,50.44,0,0,0-6.38,17.45s-4-2.7-1.35-9.46A55.75,55.75,0,0,1,445.44,739.22Z" transform="translate(-428 -636.11)"/>
    <path class="cls-1" d="M582.72,758a50.86,50.86,0,0,0-6.28-17.29c1.34-.37,2.52-.72,3.54-1a55.35,55.35,0,0,1,4.09,8.87C586.78,755.27,582.72,758,582.72,758Z" transform="translate(-428 -636.11)"/>
    <path class="cls-1" d="M594.19,673c-1-2-6-5-6-5l-72-31a11.82,11.82,0,0,0-4.24-.88h-.71A11.82,11.82,0,0,0,507,637l-72,31s-5,3-6,5a9.37,9.37,0,0,0,1,10c3,4,11,13,11,13l3,1,2.79,4H576.4l2.79-4,3-1s8-9,11-13A9.37,9.37,0,0,0,594.19,673Zm-82.76,20.13c-16.9-8.63-15.54-30-15.54-30l15.54-5.28L527,663.09S528.33,684.5,511.43,693.13Z" transform="translate(-428 -636.11)"/>
    <path class="cls-1" d="M587.69,731.21A6.35,6.35,0,0,1,584,735s-2.59,1-7.66,2.47c-1.17.33-2.47.69-3.91,1.06s-2.77.68-4.33,1a257.75,257.75,0,0,1-46.53,5.81H512l-.06,0h-8.39a254.64,254.64,0,0,1-47.91-6.14c-1.7-.4-3.26-.79-4.66-1.17s-2.69-.73-3.8-1.06c-4-1.19-6.06-2-6.06-2a6.32,6.32,0,0,1-4-4.78,13.72,13.72,0,0,1,1-7.22c12-20,16.51-19,16.51-19H570.12l-.06,0h.43S575,703,587,723C587,723,589,727.52,587.69,731.21Z" transform="translate(-428 -636.11)"/>
    <path class="cls-1" d="M580,774l-4.06-25.69a21,21,0,0,0-3.09-6.65c-10.38,2.62-27.42,5.85-50.52,6.77h-9.57l-.06,0h-8.39c-23.95-1-41.38-4.4-51.64-7.06a20.94,20.94,0,0,0-3.31,7L445.3,774s-2.71,17.58,14.88,21.64c0,0,4.05,1.35,12.17,1.35h28.88a7,7,0,0,0,4.93-6.76s-1.33-9.25,6.49-9.47c7.82.22,6.49,9.47,6.49,9.47a7,7,0,0,0,4.92,6.76H553c8.12,0,12.17-1.35,12.17-1.35C582.7,791.55,580,774,580,774Zm-99.5,7A10.5,10.5,0,1,1,491,770.5,10.5,10.5,0,0,1,480.5,781Zm64-1A10.5,10.5,0,1,1,555,769.5,10.5,10.5,0,0,1,544.5,780Z" transform="translate(-428 -636.11)"/>
    <path class="cls-1" d="M507.51,786.14h10.4a5.36,5.36,0,0,0-10.4,0Z" transform="translate(-428 -636.11)"/>
    <path class="cls-1" d="M512.92,780.73" transform="translate(-428 -636.11)"/>
  </g>
</svg>
