<svg width="24" height="24" viewBox="0 0 24 24" fill="none" xmlns="http://www.w3.org/2000/svg">
<path fill-rule="evenodd" clip-rule="evenodd" d="M18.3642 18.3629C15.6137 21.1137 11.5408 21.708 8.20777 20.1666C7.71574 19.9685 7.31234 19.8084 6.92883 19.8084C5.86064 19.8147 4.53105 20.8505 3.84002 20.1603C3.149 19.4692 4.18554 18.1385 4.18554 17.0639C4.18554 16.6804 4.03177 16.2841 3.83369 15.7911C2.29155 12.4587 2.8867 8.38442 5.63723 5.63449C9.14844 2.12199 14.853 2.12199 18.3642 5.63358C21.8818 9.15151 21.8754 14.8513 18.3642 18.3629Z" stroke="black" stroke-width="1.5" stroke-linecap="round" stroke-linejoin="round"/>
<path d="M15.5456 12.3719H15.5537" stroke="black" stroke-width="1.5" stroke-linecap="round" stroke-linejoin="round"/>
<path d="M11.9372 12.3719H11.9453" stroke="black" stroke-width="1.5" stroke-linecap="round" stroke-linejoin="round"/>
<path d="M8.32925 12.3719H8.33735" stroke="black" stroke-width="1.5" stroke-linecap="round" stroke-linejoin="round"/>
</svg>
